<svg xmlns="http://www.w3.org/2000/svg" xmlns:xlink="http://www.w3.org/1999/xlink" width="100" zoomAndPan="magnify" viewBox="0 0 75 74.999997" height="100" preserveAspectRatio="xMidYMid meet" version="1.0"><defs><clipPath id="51a79393d7"><path d="M 2.675781 55 L 28 55 L 28 70.503906 L 2.675781 70.503906 Z M 2.675781 55 " clip-rule="nonzero"/></clipPath><clipPath id="813cb17842"><path d="M 23 55 L 52 55 L 52 70.503906 L 23 70.503906 Z M 23 55 " clip-rule="nonzero"/></clipPath><clipPath id="ed8b63f105"><path d="M 47 55 L 72.425781 55 L 72.425781 70.503906 L 47 70.503906 Z M 47 55 " clip-rule="nonzero"/></clipPath><clipPath id="1be7df3763"><path d="M 19 4.503906 L 56 4.503906 L 56 41 L 19 41 Z M 19 4.503906 " clip-rule="nonzero"/></clipPath><clipPath id="1e62b33ca5"><path d="M 1.339844 56 L 28 56 L 28 71.488281 L 1.339844 71.488281 Z M 1.339844 56 " clip-rule="nonzero"/></clipPath><clipPath id="856fc72805"><path d="M 22 56 L 53 56 L 53 71.488281 L 22 71.488281 Z M 22 56 " clip-rule="nonzero"/></clipPath><clipPath id="28248e825e"><path d="M 47 56 L 73.339844 56 L 73.339844 71.488281 L 47 71.488281 Z M 47 56 " clip-rule="nonzero"/></clipPath><clipPath id="f2766e32e5"><path d="M 18 3.238281 L 57 3.238281 L 57 41 L 18 41 Z M 18 3.238281 " clip-rule="nonzero"/></clipPath></defs><g clip-path="url(#51a79393d7)"><path fill="#28a745" d="M 24.171875 70.484375 L 3.503906 70.484375 C 3.066406 70.484375 2.714844 70.128906 2.714844 69.691406 C 2.714844 61.90625 9.046875 55.574219 16.832031 55.574219 C 21.09375 55.574219 25.085938 57.46875 27.78125 60.777344 C 28.054688 61.113281 28.003906 61.613281 27.667969 61.886719 C 27.328125 62.164062 26.828125 62.113281 26.554688 61.777344 C 24.160156 58.839844 20.617188 57.15625 16.832031 57.15625 C 10.1875 57.15625 4.730469 62.355469 4.320312 68.902344 L 24.171875 68.902344 C 24.609375 68.902344 24.964844 69.257812 24.964844 69.695312 C 24.964844 70.128906 24.609375 70.484375 24.171875 70.484375 Z M 24.171875 70.484375 " fill-opacity="1" fill-rule="nonzero"/></g><path fill="#28a745" d="M 16.832031 57.152344 C 12.800781 57.152344 9.523438 53.875 9.523438 49.84375 C 9.523438 45.8125 12.800781 42.535156 16.832031 42.535156 C 20.863281 42.535156 24.144531 45.8125 24.144531 49.84375 C 24.144531 53.875 20.863281 57.152344 16.832031 57.152344 Z M 16.832031 44.117188 C 13.675781 44.117188 11.105469 46.6875 11.105469 49.84375 C 11.105469 53.003906 13.675781 55.574219 16.832031 55.574219 C 19.992188 55.574219 22.5625 53.003906 22.5625 49.84375 C 22.5625 46.6875 19.992188 44.117188 16.832031 44.117188 Z M 16.832031 44.117188 " fill-opacity="1" fill-rule="nonzero"/><g clip-path="url(#813cb17842)"><path fill="#28a745" d="M 50.828125 70.484375 L 24.171875 70.484375 C 23.734375 70.484375 23.382812 70.128906 23.382812 69.691406 C 23.382812 61.90625 29.714844 55.574219 37.5 55.574219 C 45.285156 55.574219 51.621094 61.90625 51.621094 69.691406 C 51.621094 70.128906 51.265625 70.484375 50.828125 70.484375 Z M 24.988281 68.902344 L 50.015625 68.902344 C 49.605469 62.355469 44.148438 57.152344 37.5 57.152344 C 30.851562 57.152344 25.398438 62.355469 24.988281 68.902344 Z M 24.988281 68.902344 " fill-opacity="1" fill-rule="nonzero"/></g><path fill="#28a745" d="M 37.5 57.152344 C 33.472656 57.152344 30.191406 53.875 30.191406 49.84375 C 30.191406 45.8125 33.46875 42.535156 37.5 42.535156 C 41.53125 42.535156 44.8125 45.8125 44.8125 49.84375 C 44.8125 53.875 41.53125 57.152344 37.5 57.152344 Z M 37.5 44.117188 C 34.34375 44.117188 31.773438 46.6875 31.773438 49.84375 C 31.773438 53.003906 34.34375 55.574219 37.5 55.574219 C 40.660156 55.574219 43.230469 53.003906 43.230469 49.84375 C 43.230469 46.6875 40.660156 44.117188 37.5 44.117188 Z M 37.5 44.117188 " fill-opacity="1" fill-rule="nonzero"/><g clip-path="url(#ed8b63f105)"><path fill="#28a745" d="M 71.496094 70.484375 L 50.828125 70.484375 C 50.394531 70.484375 50.039062 70.128906 50.039062 69.691406 C 50.039062 69.253906 50.394531 68.902344 50.828125 68.902344 L 70.683594 68.902344 C 70.273438 62.355469 64.816406 57.152344 58.171875 57.152344 C 54.386719 57.152344 50.84375 58.835938 48.449219 61.773438 C 48.171875 62.113281 47.675781 62.164062 47.335938 61.886719 C 46.996094 61.609375 46.945312 61.113281 47.222656 60.773438 C 49.917969 57.46875 53.910156 55.570312 58.171875 55.570312 C 65.953125 55.570312 72.289062 61.90625 72.289062 69.691406 C 72.289062 70.128906 71.933594 70.484375 71.496094 70.484375 Z M 71.496094 70.484375 " fill-opacity="1" fill-rule="nonzero"/></g><path fill="#28a745" d="M 58.167969 57.152344 C 54.136719 57.152344 50.859375 53.875 50.859375 49.84375 C 50.859375 45.8125 54.136719 42.535156 58.167969 42.535156 C 62.199219 42.535156 65.480469 45.8125 65.480469 49.84375 C 65.480469 53.875 62.199219 57.152344 58.167969 57.152344 Z M 58.167969 44.117188 C 55.011719 44.117188 52.4375 46.6875 52.4375 49.84375 C 52.4375 53.003906 55.011719 55.574219 58.167969 55.574219 C 61.328125 55.574219 63.898438 53.003906 63.898438 49.84375 C 63.898438 46.6875 61.328125 44.117188 58.167969 44.117188 Z M 58.167969 44.117188 " fill-opacity="1" fill-rule="nonzero"/><g clip-path="url(#1be7df3763)"><path fill="#28a745" d="M 37.5 40.375 C 35.894531 40.375 34.652344 39.15625 33.554688 38.085938 C 32.859375 37.40625 32.207031 36.765625 31.566406 36.492188 C 30.902344 36.210938 29.925781 36.203125 28.980469 36.195312 C 27.449219 36.183594 25.867188 36.171875 24.816406 35.125 C 23.765625 34.074219 23.753906 32.492188 23.742188 30.960938 C 23.734375 30.015625 23.726562 29.035156 23.445312 28.375 C 23.175781 27.734375 22.535156 27.078125 21.855469 26.382812 C 20.78125 25.285156 19.5625 24.042969 19.5625 22.4375 C 19.5625 20.832031 20.78125 19.589844 21.855469 18.492188 C 22.535156 17.796875 23.175781 17.144531 23.445312 16.5 C 23.726562 15.839844 23.734375 14.863281 23.742188 13.917969 C 23.753906 12.386719 23.765625 10.800781 24.816406 9.753906 C 25.867188 8.703125 27.449219 8.691406 28.980469 8.679688 C 29.925781 8.671875 30.902344 8.664062 31.566406 8.382812 C 32.207031 8.113281 32.859375 7.472656 33.554688 6.792969 C 34.652344 5.714844 35.894531 4.5 37.5 4.5 C 39.105469 4.5 40.351562 5.71875 41.445312 6.792969 C 42.140625 7.472656 42.796875 8.113281 43.4375 8.382812 C 44.101562 8.664062 45.078125 8.671875 46.023438 8.679688 C 47.554688 8.691406 49.136719 8.703125 50.1875 9.753906 C 51.234375 10.800781 51.25 12.386719 51.261719 13.917969 C 51.269531 14.863281 51.277344 15.839844 51.554688 16.5 C 51.828125 17.140625 52.46875 17.796875 53.148438 18.492188 C 54.222656 19.585938 55.441406 20.832031 55.441406 22.4375 C 55.441406 24.039062 54.222656 25.285156 53.148438 26.382812 C 52.46875 27.078125 51.824219 27.730469 51.554688 28.371094 C 51.277344 29.035156 51.269531 30.011719 51.261719 30.957031 C 51.246094 32.488281 51.234375 34.070312 50.1875 35.121094 C 49.136719 36.171875 47.554688 36.183594 46.023438 36.195312 C 45.078125 36.203125 44.101562 36.210938 43.4375 36.492188 C 42.796875 36.761719 42.144531 37.402344 41.449219 38.082031 C 40.351562 39.160156 39.105469 40.375 37.5 40.375 Z M 37.5 6.078125 C 36.542969 6.078125 35.628906 6.972656 34.660156 7.921875 C 33.890625 8.671875 33.097656 9.449219 32.179688 9.839844 C 31.226562 10.242188 30.089844 10.25 28.992188 10.261719 C 27.722656 10.269531 26.523438 10.277344 25.933594 10.871094 C 25.34375 11.460938 25.332031 12.660156 25.324219 13.929688 C 25.3125 15.027344 25.304688 16.167969 24.902344 17.117188 C 24.511719 18.035156 23.734375 18.828125 22.984375 19.597656 C 22.035156 20.566406 21.140625 21.476562 21.140625 22.4375 C 21.140625 23.398438 22.035156 24.3125 22.984375 25.277344 C 23.734375 26.046875 24.511719 26.84375 24.902344 27.757812 C 25.304688 28.710938 25.3125 29.847656 25.324219 30.945312 C 25.332031 32.214844 25.34375 33.414062 25.933594 34.003906 C 26.523438 34.597656 27.722656 34.605469 28.992188 34.617188 C 30.089844 34.625 31.230469 34.632812 32.179688 35.035156 C 33.097656 35.421875 33.890625 36.203125 34.660156 36.957031 C 35.628906 37.902344 36.539062 38.796875 37.5 38.796875 C 38.460938 38.796875 39.375 37.902344 40.34375 36.957031 C 41.109375 36.203125 41.90625 35.425781 42.824219 35.035156 C 43.773438 34.636719 44.910156 34.625 46.007812 34.617188 C 47.277344 34.605469 48.476562 34.597656 49.070312 34.003906 C 49.660156 33.414062 49.667969 32.214844 49.679688 30.945312 C 49.6875 29.847656 49.699219 28.710938 50.101562 27.757812 C 50.488281 26.839844 51.269531 26.046875 52.019531 25.277344 C 52.96875 24.3125 53.863281 23.398438 53.863281 22.4375 C 53.863281 21.476562 52.96875 20.566406 52.019531 19.597656 C 51.269531 18.828125 50.488281 18.035156 50.101562 17.117188 C 49.699219 16.164062 49.691406 15.027344 49.679688 13.929688 C 49.671875 12.660156 49.660156 11.460938 49.070312 10.871094 C 48.480469 10.277344 47.28125 10.269531 46.011719 10.261719 C 44.914062 10.25 43.773438 10.242188 42.824219 9.839844 C 41.90625 9.453125 41.113281 8.671875 40.34375 7.921875 C 39.375 6.972656 38.460938 6.078125 37.5 6.078125 Z M 37.5 6.078125 " fill-opacity="1" fill-rule="nonzero"/></g><path fill="#28a745" d="M 37.5 32.804688 C 31.785156 32.804688 27.132812 28.15625 27.132812 22.4375 C 27.132812 16.722656 31.785156 12.070312 37.5 12.070312 C 43.21875 12.070312 47.867188 16.722656 47.867188 22.4375 C 47.867188 28.15625 43.21875 32.804688 37.5 32.804688 Z M 37.5 13.652344 C 32.65625 13.652344 28.714844 17.59375 28.714844 22.4375 C 28.714844 27.285156 32.65625 31.226562 37.5 31.226562 C 42.347656 31.226562 46.289062 27.285156 46.289062 22.4375 C 46.289062 17.59375 42.347656 13.652344 37.5 13.652344 Z M 37.5 13.652344 " fill-opacity="1" fill-rule="nonzero"/><path fill="#28a745" d="M 34.898438 27.011719 C 34.695312 27.011719 34.492188 26.9375 34.339844 26.78125 L 31.972656 24.414062 C 31.664062 24.105469 31.664062 23.605469 31.972656 23.296875 C 32.28125 22.988281 32.78125 22.988281 33.089844 23.296875 L 34.898438 25.105469 L 41.910156 18.09375 C 42.21875 17.785156 42.71875 17.785156 43.027344 18.09375 C 43.335938 18.402344 43.335938 18.90625 43.027344 19.210938 L 35.457031 26.785156 C 35.304688 26.9375 35.101562 27.011719 34.898438 27.011719 Z M 34.898438 27.011719 " fill-opacity="1" fill-rule="nonzero"/><g clip-path="url(#1e62b33ca5)"><path fill="#28a745" d="M 23.660156 71.746094 L 2.199219 71.746094 C 1.746094 71.746094 1.378906 71.378906 1.378906 70.925781 C 1.378906 62.839844 7.953125 56.261719 16.039062 56.261719 C 20.460938 56.261719 24.605469 58.230469 27.40625 61.664062 C 27.691406 62.015625 27.636719 62.535156 27.285156 62.820312 C 26.933594 63.109375 26.417969 63.054688 26.132812 62.703125 C 23.644531 59.65625 19.964844 57.90625 16.039062 57.90625 C 9.136719 57.90625 3.46875 63.308594 3.046875 70.105469 L 23.660156 70.105469 C 24.113281 70.105469 24.480469 70.472656 24.480469 70.925781 C 24.480469 71.378906 24.113281 71.746094 23.660156 71.746094 Z M 23.660156 71.746094 " fill-opacity="1" fill-rule="nonzero"/></g><path fill="#28a745" d="M 16.039062 57.90625 C 11.851562 57.90625 8.449219 54.5 8.449219 50.3125 C 8.449219 46.128906 11.851562 42.722656 16.039062 42.722656 C 20.222656 42.722656 23.628906 46.128906 23.628906 50.3125 C 23.628906 54.5 20.222656 57.90625 16.039062 57.90625 Z M 16.039062 44.367188 C 12.757812 44.367188 10.089844 47.035156 10.089844 50.316406 C 10.089844 53.597656 12.757812 56.265625 16.039062 56.265625 C 19.316406 56.265625 21.988281 53.597656 21.988281 50.316406 C 21.988281 47.035156 19.316406 44.367188 16.039062 44.367188 Z M 16.039062 44.367188 " fill-opacity="1" fill-rule="nonzero"/><g clip-path="url(#856fc72805)"><path fill="#28a745" d="M 51.339844 71.746094 L 23.660156 71.746094 C 23.207031 71.746094 22.835938 71.378906 22.835938 70.925781 C 22.835938 62.839844 29.414062 56.261719 37.5 56.261719 C 45.582031 56.261719 52.160156 62.839844 52.160156 70.925781 C 52.160156 71.378906 51.792969 71.746094 51.339844 71.746094 Z M 24.503906 70.105469 L 50.492188 70.105469 C 50.066406 63.304688 44.402344 57.90625 37.5 57.90625 C 30.59375 57.90625 24.929688 63.304688 24.503906 70.105469 Z M 24.503906 70.105469 " fill-opacity="1" fill-rule="nonzero"/></g><path fill="#28a745" d="M 37.5 57.90625 C 33.3125 57.90625 29.90625 54.5 29.90625 50.3125 C 29.90625 46.128906 33.3125 42.722656 37.5 42.722656 C 41.683594 42.722656 45.089844 46.128906 45.089844 50.3125 C 45.089844 54.5 41.683594 57.90625 37.5 57.90625 Z M 37.5 44.367188 C 34.21875 44.367188 31.550781 47.035156 31.550781 50.316406 C 31.550781 53.597656 34.21875 56.265625 37.5 56.265625 C 40.777344 56.265625 43.449219 53.597656 43.449219 50.316406 C 43.449219 47.035156 40.777344 44.367188 37.5 44.367188 Z M 37.5 44.367188 " fill-opacity="1" fill-rule="nonzero"/><g clip-path="url(#28248e825e)"><path fill="#28a745" d="M 72.800781 71.746094 L 51.339844 71.746094 C 50.886719 71.746094 50.519531 71.378906 50.519531 70.925781 C 50.519531 70.472656 50.886719 70.105469 51.339844 70.105469 L 71.953125 70.105469 C 71.527344 63.304688 65.863281 57.90625 58.960938 57.90625 C 55.03125 57.90625 51.351562 59.652344 48.867188 62.703125 C 48.578125 63.054688 48.0625 63.105469 47.710938 62.820312 C 47.359375 62.53125 47.308594 62.015625 47.59375 61.664062 C 50.394531 58.230469 54.535156 56.261719 58.960938 56.261719 C 67.042969 56.261719 73.621094 62.839844 73.621094 70.921875 C 73.621094 71.378906 73.253906 71.746094 72.800781 71.746094 Z M 72.800781 71.746094 " fill-opacity="1" fill-rule="nonzero"/></g><path fill="#28a745" d="M 58.957031 57.90625 C 54.773438 57.90625 51.367188 54.5 51.367188 50.3125 C 51.367188 46.128906 54.773438 42.722656 58.957031 42.722656 C 63.144531 42.722656 66.550781 46.128906 66.550781 50.3125 C 66.550781 54.5 63.144531 57.90625 58.957031 57.90625 Z M 58.957031 44.367188 C 55.679688 44.367188 53.007812 47.035156 53.007812 50.316406 C 53.007812 53.597656 55.679688 56.265625 58.957031 56.265625 C 62.238281 56.265625 64.90625 53.597656 64.90625 50.316406 C 64.90625 47.035156 62.242188 44.367188 58.957031 44.367188 Z M 58.957031 44.367188 " fill-opacity="1" fill-rule="nonzero"/><g clip-path="url(#f2766e32e5)"><path fill="#28a745" d="M 37.5 40.484375 C 35.832031 40.484375 34.539062 39.21875 33.402344 38.105469 C 32.679688 37.398438 32 36.734375 31.335938 36.449219 C 30.644531 36.160156 29.632812 36.152344 28.648438 36.144531 C 27.058594 36.132812 25.417969 36.117188 24.328125 35.03125 C 23.238281 33.941406 23.222656 32.296875 23.210938 30.707031 C 23.203125 29.722656 23.195312 28.710938 22.90625 28.023438 C 22.621094 27.355469 21.957031 26.675781 21.25 25.953125 C 20.136719 24.816406 18.871094 23.523438 18.871094 21.859375 C 18.871094 20.191406 20.136719 18.898438 21.25 17.761719 C 21.957031 17.039062 22.621094 16.359375 22.90625 15.695312 C 23.195312 15.003906 23.203125 13.992188 23.210938 13.007812 C 23.226562 11.417969 23.238281 9.777344 24.328125 8.683594 C 25.417969 7.59375 27.058594 7.582031 28.648438 7.570312 C 29.632812 7.5625 30.644531 7.554688 31.335938 7.265625 C 32 6.980469 32.679688 6.316406 33.402344 5.609375 C 34.539062 4.496094 35.832031 3.230469 37.5 3.230469 C 39.164062 3.230469 40.457031 4.496094 41.597656 5.609375 C 42.316406 6.316406 42.996094 6.980469 43.664062 7.265625 C 44.351562 7.554688 45.363281 7.5625 46.347656 7.570312 C 47.9375 7.582031 49.582031 7.597656 50.671875 8.683594 C 51.761719 9.777344 51.773438 11.417969 51.785156 13.007812 C 51.792969 13.992188 51.800781 15.003906 52.09375 15.691406 C 52.375 16.359375 53.039062 17.039062 53.746094 17.757812 C 54.863281 18.898438 56.125 20.191406 56.125 21.855469 C 56.125 23.523438 54.859375 24.8125 53.746094 25.953125 C 53.039062 26.675781 52.371094 27.351562 52.09375 28.019531 C 51.800781 28.707031 51.792969 29.722656 51.785156 30.703125 C 51.773438 32.292969 51.757812 33.9375 50.671875 35.027344 C 49.582031 36.117188 47.9375 36.132812 46.347656 36.140625 C 45.363281 36.152344 44.351562 36.160156 43.664062 36.449219 C 42.996094 36.730469 42.316406 37.398438 41.597656 38.101562 C 40.457031 39.21875 39.164062 40.484375 37.5 40.484375 Z M 37.5 4.871094 C 36.503906 4.871094 35.554688 5.800781 34.546875 6.78125 C 33.75 7.5625 32.925781 8.371094 31.972656 8.777344 C 30.984375 9.191406 29.804688 9.203125 28.664062 9.210938 C 27.34375 9.222656 26.101562 9.230469 25.488281 9.847656 C 24.871094 10.460938 24.863281 11.703125 24.851562 13.023438 C 24.84375 14.164062 24.835938 15.34375 24.417969 16.332031 C 24.011719 17.285156 23.207031 18.109375 22.421875 18.90625 C 21.441406 19.914062 20.511719 20.859375 20.511719 21.859375 C 20.511719 22.855469 21.441406 23.804688 22.421875 24.808594 C 23.207031 25.605469 24.011719 26.429688 24.417969 27.382812 C 24.832031 28.371094 24.84375 29.550781 24.851562 30.691406 C 24.863281 32.011719 24.871094 33.253906 25.488281 33.867188 C 26.101562 34.484375 27.34375 34.492188 28.664062 34.503906 C 29.804688 34.511719 30.984375 34.519531 31.972656 34.9375 C 32.925781 35.339844 33.75 36.152344 34.546875 36.933594 C 35.554688 37.914062 36.5 38.84375 37.5 38.84375 C 38.496094 38.84375 39.445312 37.914062 40.449219 36.933594 C 41.246094 36.152344 42.070312 35.34375 43.023438 34.9375 C 44.011719 34.523438 45.191406 34.511719 46.332031 34.503906 C 47.652344 34.492188 48.894531 34.484375 49.511719 33.867188 C 50.125 33.253906 50.132812 32.011719 50.144531 30.691406 C 50.152344 29.550781 50.164062 28.371094 50.582031 27.382812 C 50.984375 26.429688 51.792969 25.605469 52.574219 24.808594 C 53.558594 23.804688 54.488281 22.855469 54.488281 21.859375 C 54.488281 20.859375 53.558594 19.914062 52.574219 18.90625 C 51.792969 18.109375 50.984375 17.285156 50.582031 16.332031 C 50.164062 15.34375 50.15625 14.164062 50.144531 13.023438 C 50.136719 11.703125 50.125 10.460938 49.511719 9.847656 C 48.898438 9.230469 47.652344 9.222656 46.335938 9.210938 C 45.195312 9.203125 44.011719 9.195312 43.027344 8.777344 C 42.074219 8.375 41.246094 7.5625 40.449219 6.78125 C 39.445312 5.800781 38.496094 4.871094 37.5 4.871094 Z M 37.5 4.871094 " fill-opacity="1" fill-rule="nonzero"/></g><path fill="#28a745" d="M 37.5 32.621094 C 31.5625 32.621094 26.734375 27.792969 26.734375 21.859375 C 26.734375 15.921875 31.5625 11.09375 37.5 11.09375 C 43.433594 11.09375 48.265625 15.921875 48.265625 21.859375 C 48.265625 27.792969 43.433594 32.621094 37.5 32.621094 Z M 37.5 12.734375 C 32.46875 12.734375 28.375 16.824219 28.375 21.859375 C 28.375 26.890625 32.46875 30.980469 37.5 30.980469 C 42.53125 30.980469 46.621094 26.890625 46.621094 21.859375 C 46.621094 16.824219 42.53125 12.734375 37.5 12.734375 Z M 37.5 12.734375 " fill-opacity="1" fill-rule="nonzero"/><path fill="#28a745" d="M 34.796875 26.609375 C 34.585938 26.609375 34.375 26.527344 34.214844 26.367188 L 31.757812 23.910156 C 31.4375 23.589844 31.4375 23.070312 31.757812 22.75 C 32.078125 22.429688 32.597656 22.429688 32.917969 22.75 L 34.796875 24.628906 L 42.078125 17.347656 C 42.398438 17.027344 42.917969 17.027344 43.238281 17.347656 C 43.558594 17.667969 43.558594 18.1875 43.238281 18.507812 L 35.375 26.371094 C 35.214844 26.527344 35.007812 26.609375 34.796875 26.609375 Z M 34.796875 26.609375 " fill-opacity="1" fill-rule="nonzero"/></svg>