<svg xmlns="http://www.w3.org/2000/svg" xmlns:xlink="http://www.w3.org/1999/xlink" width="100" zoomAndPan="magnify" viewBox="0 0 75 74.999997" height="100" preserveAspectRatio="xMidYMid meet" version="1.0"><defs><clipPath id="7939b81872"><path d="M 7.921875 0.835938 L 67.171875 0.835938 L 67.171875 74.335938 L 7.921875 74.335938 Z M 7.921875 0.835938 " clip-rule="nonzero"/></clipPath></defs><path fill="#28a745" d="M 14.796875 36.410156 L 37.707031 36.410156 C 38.394531 36.410156 38.851562 35.953125 38.851562 35.265625 C 38.851562 34.578125 38.394531 34.121094 37.707031 34.121094 L 14.796875 34.121094 C 14.109375 34.121094 13.652344 34.578125 13.652344 35.265625 C 13.652344 35.953125 14.109375 36.410156 14.796875 36.410156 Z M 14.796875 36.410156 " fill-opacity="1" fill-rule="nonzero"/><path fill="#28a745" d="M 14.796875 42.140625 L 37.707031 42.140625 C 38.394531 42.140625 38.851562 41.679688 38.851562 40.992188 C 38.851562 40.304688 38.394531 39.847656 37.707031 39.847656 L 14.796875 39.847656 C 14.109375 39.847656 13.652344 40.304688 13.652344 40.992188 C 13.652344 41.679688 14.109375 42.140625 14.796875 42.140625 Z M 14.796875 42.140625 " fill-opacity="1" fill-rule="nonzero"/><path fill="#28a745" d="M 14.796875 47.867188 L 37.707031 47.867188 C 38.394531 47.867188 38.851562 47.410156 38.851562 46.722656 C 38.851562 46.035156 38.394531 45.574219 37.707031 45.574219 L 14.796875 45.574219 C 14.109375 45.574219 13.652344 46.035156 13.652344 46.722656 C 13.652344 47.410156 14.109375 47.867188 14.796875 47.867188 Z M 14.796875 47.867188 " fill-opacity="1" fill-rule="nonzero"/><path fill="#28a745" d="M 50.308594 52.449219 L 34.269531 52.449219 C 33.582031 52.449219 33.125 52.90625 33.125 53.59375 C 33.125 54.28125 33.582031 54.738281 34.269531 54.738281 L 50.308594 54.738281 C 50.996094 54.738281 51.453125 54.28125 51.453125 53.59375 C 51.453125 52.90625 50.996094 52.449219 50.308594 52.449219 Z M 50.308594 52.449219 " fill-opacity="1" fill-rule="nonzero"/><path fill="#28a745" d="M 50.308594 58.175781 L 34.269531 58.175781 C 33.582031 58.175781 33.125 58.632812 33.125 59.320312 C 33.125 60.007812 33.582031 60.46875 34.269531 60.46875 L 50.308594 60.46875 C 50.996094 60.46875 51.453125 60.007812 51.453125 59.320312 C 51.453125 58.632812 50.996094 58.175781 50.308594 58.175781 Z M 50.308594 58.175781 " fill-opacity="1" fill-rule="nonzero"/><path fill="#28a745" d="M 50.308594 63.902344 L 34.269531 63.902344 C 33.582031 63.902344 33.125 64.363281 33.125 65.050781 C 33.125 65.738281 33.582031 66.195312 34.269531 66.195312 L 50.308594 66.195312 C 50.996094 66.195312 51.453125 65.738281 51.453125 65.050781 C 51.453125 64.363281 50.996094 63.902344 50.308594 63.902344 Z M 50.308594 63.902344 " fill-opacity="1" fill-rule="nonzero"/><path fill="#28a745" d="M 50.308594 34.121094 L 43.433594 34.121094 C 42.746094 34.121094 42.289062 34.578125 42.289062 35.265625 C 42.289062 35.953125 42.746094 36.410156 43.433594 36.410156 L 50.308594 36.410156 C 50.996094 36.410156 51.453125 35.953125 51.453125 35.265625 C 51.453125 34.578125 50.996094 34.121094 50.308594 34.121094 Z M 50.308594 34.121094 " fill-opacity="1" fill-rule="nonzero"/><path fill="#28a745" d="M 50.308594 39.847656 L 43.433594 39.847656 C 42.746094 39.847656 42.289062 40.304688 42.289062 40.992188 C 42.289062 41.679688 42.746094 42.140625 43.433594 42.140625 L 50.308594 42.140625 C 50.996094 42.140625 51.453125 41.679688 51.453125 40.992188 C 51.453125 40.304688 50.996094 39.847656 50.308594 39.847656 Z M 50.308594 39.847656 " fill-opacity="1" fill-rule="nonzero"/><path fill="#28a745" d="M 50.308594 45.574219 L 43.433594 45.574219 C 42.746094 45.574219 42.289062 46.035156 42.289062 46.722656 C 42.289062 47.410156 42.746094 47.867188 43.433594 47.867188 L 50.308594 47.867188 C 50.996094 47.867188 51.453125 47.410156 51.453125 46.722656 C 51.453125 46.035156 50.996094 45.574219 50.308594 45.574219 Z M 50.308594 45.574219 " fill-opacity="1" fill-rule="nonzero"/><g clip-path="url(#7939b81872)"><path fill="#28a745" d="M 13.652344 11.210938 L 9.984375 11.210938 C 8.839844 11.210938 7.921875 12.125 7.921875 13.273438 L 7.921875 72.035156 C 7.921875 73.183594 8.839844 74.097656 9.984375 74.097656 L 55.003906 74.097656 C 56.148438 74.097656 57.066406 73.183594 57.066406 72.035156 L 57.066406 68.484375 L 60.960938 68.484375 C 61.761719 68.484375 62.792969 67.796875 62.792969 66.078125 L 62.792969 63.902344 L 65.65625 63.902344 C 66.113281 63.902344 67.375 63.675781 67.375 61.382812 L 67.375 2.734375 C 67.488281 1.128906 66.34375 0.902344 65.773438 0.902344 L 20.636719 0.902344 C 19.035156 0.902344 18.234375 1.816406 18.234375 2.734375 L 18.234375 5.484375 L 16.054688 5.484375 C 14.683594 5.484375 13.652344 6.285156 13.652344 7.316406 Z M 54.890625 71.921875 L 10.214844 71.921875 L 10.214844 13.5 L 54.890625 13.5 Z M 20.523438 3.191406 L 65.199219 3.191406 L 65.199219 61.613281 L 62.90625 61.613281 L 62.90625 7.316406 C 62.90625 6.171875 62.21875 5.484375 61.074219 5.484375 L 20.523438 5.484375 Z M 16.054688 7.773438 L 60.617188 7.773438 L 60.617188 66.195312 L 57.179688 66.195312 L 57.179688 13.273438 C 57.179688 12.125 56.265625 11.210938 55.117188 11.210938 L 15.941406 11.210938 L 16.054688 7.773438 C 15.941406 7.773438 16.054688 7.773438 16.054688 7.773438 Z M 16.054688 7.773438 " fill-opacity="1" fill-rule="nonzero"/></g><path fill="#28a745" d="M 50.308594 16.9375 L 14.796875 16.9375 C 14.109375 16.9375 13.652344 17.394531 13.652344 18.082031 L 13.652344 29.539062 C 13.652344 30.226562 14.109375 30.683594 14.796875 30.683594 L 50.308594 30.683594 C 50.996094 30.683594 51.453125 30.226562 51.453125 29.539062 L 51.453125 18.082031 C 51.453125 17.394531 50.996094 16.9375 50.308594 16.9375 Z M 49.160156 28.394531 L 15.941406 28.394531 L 15.941406 19.230469 L 49.160156 19.230469 Z M 49.160156 28.394531 " fill-opacity="1" fill-rule="nonzero"/><path fill="#28a745" d="M 29.6875 52.449219 L 14.796875 52.449219 C 14.109375 52.449219 13.652344 52.90625 13.652344 53.59375 L 13.652344 65.050781 C 13.652344 65.738281 14.109375 66.195312 14.796875 66.195312 L 29.6875 66.195312 C 30.375 66.195312 30.832031 65.738281 30.832031 65.050781 L 30.832031 53.59375 C 30.832031 52.90625 30.375 52.449219 29.6875 52.449219 Z M 28.542969 63.902344 L 15.941406 63.902344 L 15.941406 54.738281 L 28.542969 54.738281 Z M 28.542969 63.902344 " fill-opacity="1" fill-rule="nonzero"/></svg>