<svg xmlns="http://www.w3.org/2000/svg" xmlns:xlink="http://www.w3.org/1999/xlink" width="100" zoomAndPan="magnify" viewBox="0 0 75 74.999997" height="100" preserveAspectRatio="xMidYMid meet" version="1.0"><defs><clipPath id="28a43ff38c"><path d="M 1.761719 16 L 73.011719 16 L 73.011719 64.5 L 1.761719 64.5 Z M 1.761719 16 " clip-rule="nonzero"/></clipPath><clipPath id="691ba5dd5f"><path d="M 20 7.5 L 56 7.5 L 56 28 L 20 28 Z M 20 7.5 " clip-rule="nonzero"/></clipPath></defs><g clip-path="url(#28a43ff38c)"><path fill="#28a745" d="M 70.945312 55.5 L 68.492188 55.5 C 68.605469 55.164062 68.714844 54.773438 68.714844 54.328125 L 68.714844 19.847656 C 68.714844 17.949219 67.207031 16.445312 65.3125 16.445312 L 56.160156 16.445312 C 56.386719 16.945312 56.550781 17.503906 56.550781 18.117188 C 56.550781 18.285156 56.550781 18.507812 56.496094 18.675781 L 65.3125 18.675781 C 65.925781 18.675781 66.484375 19.179688 66.484375 19.847656 L 66.484375 54.328125 C 66.484375 54.941406 65.980469 55.5 65.3125 55.5 L 44.164062 55.5 C 43.550781 55.5 43.050781 56.003906 43.050781 56.617188 C 43.050781 57.230469 42.546875 57.730469 41.933594 57.730469 L 33.007812 57.730469 C 32.394531 57.730469 31.890625 57.230469 31.890625 56.617188 C 31.890625 56.003906 31.390625 55.5 30.773438 55.5 L 9.628906 55.5 C 9.015625 55.5 8.457031 54.996094 8.457031 54.328125 L 8.457031 19.847656 C 8.457031 19.234375 8.960938 18.675781 9.628906 18.675781 L 22.628906 18.675781 L 22.628906 16.777344 L 21.347656 16.445312 L 9.628906 16.445312 C 7.730469 16.445312 6.226562 17.949219 6.226562 19.847656 L 6.226562 54.328125 C 6.226562 54.71875 6.28125 55.109375 6.449219 55.5 L 3.992188 55.5 C 2.765625 55.5 1.761719 56.503906 1.761719 57.730469 L 1.761719 60.1875 C 1.761719 62.53125 3.660156 64.425781 6.003906 64.425781 L 68.996094 64.425781 C 71.335938 64.425781 73.234375 62.53125 73.234375 60.1875 L 73.234375 57.730469 C 73.179688 56.503906 72.175781 55.5 70.945312 55.5 Z M 70.945312 60.1875 C 70.945312 61.304688 70.054688 62.195312 68.9375 62.195312 L 6.003906 62.195312 C 4.886719 62.195312 3.992188 61.304688 3.992188 60.1875 L 3.992188 57.730469 L 29.882812 57.730469 C 30.328125 59.015625 31.554688 59.964844 33.007812 59.964844 L 41.933594 59.964844 C 43.382812 59.964844 44.613281 59.015625 45.058594 57.730469 L 70.945312 57.730469 Z M 70.945312 60.1875 " fill-opacity="1" fill-rule="nonzero"/></g><path fill="#28a745" d="M 61.351562 22.582031 C 62.019531 22.582031 62.578125 23.140625 62.578125 23.808594 L 62.578125 50.367188 C 62.578125 51.035156 62.019531 51.59375 61.351562 51.59375 L 13.589844 51.59375 C 12.921875 51.59375 12.363281 51.035156 12.363281 50.367188 L 12.363281 23.808594 C 12.363281 23.140625 12.921875 22.582031 13.589844 22.582031 L 22.574219 22.582031 L 22.574219 20.351562 L 13.589844 20.351562 C 11.695312 20.351562 10.132812 21.910156 10.132812 23.808594 L 10.132812 50.367188 C 10.132812 52.265625 11.695312 53.828125 13.589844 53.828125 L 61.351562 53.828125 C 63.246094 53.828125 64.808594 52.265625 64.808594 50.367188 L 64.808594 23.808594 C 64.808594 21.910156 63.246094 20.351562 61.351562 20.351562 L 57.722656 20.351562 C 57.945312 21.074219 57.890625 21.855469 57.613281 22.582031 Z M 61.351562 22.582031 " fill-opacity="1" fill-rule="nonzero"/><g clip-path="url(#691ba5dd5f)"><path fill="#28a745" d="M 54.097656 18.730469 C 54.152344 18.5625 54.207031 18.339844 54.207031 18.117188 C 54.207031 17.617188 53.984375 17.167969 53.652344 16.890625 L 53.652344 13.097656 C 53.652344 13.097656 53.652344 13.097656 53.652344 13.039062 C 53.652344 12.929688 53.652344 12.875 53.59375 12.816406 C 53.59375 12.761719 53.59375 12.761719 53.539062 12.707031 C 53.539062 12.648438 53.484375 12.59375 53.484375 12.539062 C 53.429688 12.484375 53.371094 12.371094 53.316406 12.316406 C 53.203125 12.203125 53.039062 12.09375 52.8125 12.035156 L 37.304688 7.628906 C 37.078125 7.574219 36.914062 7.574219 36.6875 7.628906 L 21.179688 11.980469 C 20.675781 12.09375 20.339844 12.539062 20.339844 13.039062 C 20.339844 13.542969 20.675781 13.988281 21.179688 14.101562 L 24.75 15.105469 L 24.75 22.917969 C 24.75 23.921875 25.363281 24.8125 26.253906 25.148438 L 26.367188 25.203125 C 28.265625 25.929688 32.726562 27.660156 37.414062 27.660156 C 42.4375 27.660156 46.007812 26.039062 47.738281 25.316406 L 47.902344 25.203125 C 48.742188 24.8125 49.300781 23.976562 49.300781 23.027344 L 49.300781 15.214844 L 51.417969 14.601562 L 51.417969 16.890625 C 51.085938 17.167969 50.859375 17.617188 50.859375 18.117188 C 50.859375 18.507812 50.972656 18.84375 51.195312 19.121094 L 50.304688 20.738281 C 50.023438 21.296875 50.191406 21.96875 50.75 22.246094 C 50.917969 22.359375 51.085938 22.359375 51.308594 22.359375 C 51.699219 22.359375 52.089844 22.136719 52.3125 21.800781 L 52.8125 20.851562 L 53.484375 21.855469 C 53.707031 22.191406 54.042969 22.359375 54.433594 22.359375 C 54.65625 22.359375 54.824219 22.300781 55.046875 22.191406 C 55.546875 21.855469 55.714844 21.1875 55.378906 20.628906 Z M 37.023438 9.804688 L 48.574219 13.097656 L 37.636719 16.332031 L 25.699219 13.039062 Z M 47.066406 22.972656 C 47.066406 23.027344 47.011719 23.082031 46.957031 23.140625 L 46.789062 23.25 C 45.113281 24.03125 41.933594 25.425781 37.414062 25.425781 C 33.117188 25.425781 29.101562 23.863281 27.148438 23.140625 L 27.035156 23.082031 C 26.980469 23.082031 26.925781 23.027344 26.925781 22.917969 L 26.925781 15.71875 L 37.246094 18.5625 C 37.359375 18.5625 37.46875 18.621094 37.527344 18.621094 C 37.636719 18.621094 37.75 18.621094 37.859375 18.5625 L 47.011719 15.832031 L 47.011719 22.972656 Z M 47.066406 22.972656 " fill-opacity="1" fill-rule="nonzero"/></g><path fill="#28a745" d="M 23.523438 33.742188 C 23.523438 32.511719 22.519531 31.507812 21.289062 31.507812 L 19.058594 31.507812 C 17.832031 31.507812 16.828125 32.511719 16.828125 33.742188 L 16.828125 35.972656 C 16.828125 37.199219 17.832031 38.203125 19.058594 38.203125 L 21.289062 38.203125 C 22.519531 38.203125 23.523438 37.199219 23.523438 35.972656 Z M 19.058594 35.972656 L 19.058594 33.742188 L 21.289062 33.742188 L 21.289062 35.972656 Z M 19.058594 35.972656 " fill-opacity="1" fill-rule="nonzero"/><path fill="#28a745" d="M 21.289062 40.4375 L 19.058594 40.4375 C 17.832031 40.4375 16.828125 41.441406 16.828125 42.667969 L 16.828125 44.898438 C 16.828125 46.125 17.832031 47.132812 19.058594 47.132812 L 21.289062 47.132812 C 22.519531 47.132812 23.523438 46.125 23.523438 44.898438 L 23.523438 42.667969 C 23.523438 41.441406 22.519531 40.4375 21.289062 40.4375 Z M 19.058594 44.898438 L 19.058594 42.667969 L 21.289062 42.667969 L 21.289062 44.898438 Z M 19.058594 44.898438 " fill-opacity="1" fill-rule="nonzero"/><path fill="#28a745" d="M 30.21875 33.742188 C 29.605469 33.742188 29.101562 34.242188 29.101562 34.855469 C 29.101562 35.46875 29.605469 35.972656 30.21875 35.972656 L 57 35.972656 C 57.613281 35.972656 58.113281 35.46875 58.113281 34.855469 C 58.113281 34.242188 57.613281 33.742188 57 33.742188 Z M 30.21875 33.742188 " fill-opacity="1" fill-rule="nonzero"/><path fill="#28a745" d="M 57 44.898438 C 57.613281 44.898438 58.113281 44.398438 58.113281 43.785156 C 58.113281 43.167969 57.613281 42.667969 57 42.667969 L 30.21875 42.667969 C 29.605469 42.667969 29.101562 43.167969 29.101562 43.785156 C 29.101562 44.398438 29.605469 44.898438 30.21875 44.898438 Z M 57 44.898438 " fill-opacity="1" fill-rule="nonzero"/></svg>