<svg xmlns="http://www.w3.org/2000/svg" xmlns:xlink="http://www.w3.org/1999/xlink" width="100" zoomAndPan="magnify" viewBox="0 0 75 74.999997" height="100" preserveAspectRatio="xMidYMid meet" version="1.0"><defs><clipPath id="2caaa30a9f"><path d="M 2.632812 2.976562 L 71.632812 2.976562 L 71.632812 71.976562 L 2.632812 71.976562 Z M 2.632812 2.976562 " clip-rule="nonzero"/></clipPath></defs><g clip-path="url(#2caaa30a9f)"><path fill="#28a745" d="M 68.199219 32.03125 L 54.59375 32.03125 L 54.59375 15.273438 C 54.59375 15.050781 54.507812 14.832031 54.34375 14.667969 L 42.90625 3.230469 C 42.742188 3.066406 42.523438 2.980469 42.300781 2.980469 L 42.300781 2.976562 L 9.4375 2.976562 C 8.964844 2.976562 8.582031 3.363281 8.582031 3.835938 L 8.582031 9.96875 L 3.492188 9.96875 C 3.019531 9.96875 2.632812 10.351562 2.632812 10.824219 L 2.632812 67.519531 C 2.632812 67.992188 3.019531 68.375 3.492188 68.375 L 42.738281 68.375 L 42.738281 68.542969 C 42.738281 70.324219 44.1875 71.777344 45.972656 71.777344 L 68.199219 71.777344 C 69.980469 71.777344 71.433594 70.324219 71.433594 68.542969 L 71.433594 35.269531 C 71.433594 33.484375 69.984375 32.03125 68.199219 32.03125 Z M 43.152344 5.902344 L 51.667969 14.417969 L 43.152344 14.417969 Z M 10.296875 4.691406 L 41.441406 4.691406 L 41.441406 15.273438 C 41.441406 15.746094 41.824219 16.128906 42.296875 16.128906 L 52.878906 16.128906 L 52.878906 32.03125 L 45.976562 32.03125 C 44.191406 32.03125 42.738281 33.484375 42.738281 35.269531 L 42.738281 35.738281 L 38.265625 35.738281 C 37.792969 35.738281 37.410156 36.121094 37.410156 36.59375 L 37.410156 51.253906 L 35.386719 51.253906 L 35.386719 29.828125 C 35.386719 29.355469 35.003906 28.972656 34.53125 28.972656 L 28.644531 28.972656 C 28.171875 28.972656 27.789062 29.355469 27.789062 29.828125 L 27.789062 51.253906 L 25.765625 51.253906 L 25.765625 33.636719 C 25.765625 33.164062 25.382812 32.78125 24.910156 32.78125 L 19.023438 32.78125 C 18.550781 32.78125 18.167969 33.164062 18.167969 33.636719 L 18.167969 51.253906 L 16.75 51.253906 C 16.277344 51.253906 15.890625 51.636719 15.890625 52.109375 C 15.890625 52.582031 16.277344 52.964844 16.75 52.964844 L 42.738281 52.964844 L 42.738281 59.671875 L 10.296875 59.671875 Z M 42.738281 51.253906 L 39.121094 51.253906 L 39.121094 37.449219 L 42.738281 37.449219 Z M 33.675781 51.253906 L 29.5 51.253906 L 29.5 30.683594 L 33.675781 30.683594 Z M 24.054688 51.253906 L 19.878906 51.253906 L 19.878906 34.492188 L 24.054688 34.492188 Z M 4.347656 66.664062 L 4.347656 11.683594 L 8.582031 11.683594 L 8.582031 60.527344 C 8.582031 61 8.964844 61.382812 9.4375 61.382812 L 42.738281 61.382812 L 42.738281 66.664062 Z M 69.722656 68.542969 C 69.722656 69.382812 69.039062 70.066406 68.199219 70.066406 L 45.976562 70.066406 C 45.132812 70.066406 44.453125 69.382812 44.453125 68.542969 L 44.453125 35.269531 C 44.453125 34.429688 45.136719 33.746094 45.976562 33.746094 L 68.199219 33.746094 C 69.039062 33.746094 69.722656 34.429688 69.722656 35.269531 Z M 65.9375 35.457031 L 48.234375 35.457031 C 47.351562 35.457031 46.632812 36.175781 46.632812 37.058594 L 46.632812 43.011719 C 46.632812 43.894531 47.351562 44.613281 48.234375 44.613281 L 65.9375 44.613281 C 66.820312 44.613281 67.539062 43.894531 67.539062 43.011719 L 67.539062 37.058594 C 67.539062 36.175781 66.820312 35.457031 65.9375 35.457031 Z M 65.824219 42.902344 L 48.347656 42.902344 L 48.347656 37.167969 L 65.824219 37.167969 Z M 66.683594 46.933594 L 47.492188 46.933594 C 47.019531 46.933594 46.632812 47.320312 46.632812 47.789062 L 46.632812 66.324219 C 46.632812 66.796875 47.019531 67.179688 47.492188 67.179688 L 66.683594 67.179688 C 67.15625 67.179688 67.539062 66.796875 67.539062 66.324219 L 67.539062 47.789062 C 67.539062 47.316406 67.15625 46.933594 66.683594 46.933594 Z M 48.347656 55.105469 L 52.992188 55.105469 L 52.992188 59.011719 L 48.347656 59.011719 Z M 54.703125 55.105469 L 59.472656 55.105469 L 59.472656 59.011719 L 54.703125 59.011719 Z M 59.46875 60.722656 L 59.46875 65.46875 L 54.703125 65.46875 L 54.703125 60.722656 Z M 59.46875 53.390625 L 54.703125 53.390625 L 54.703125 48.648438 L 59.46875 48.648438 Z M 52.992188 48.648438 L 52.992188 53.390625 L 48.347656 53.390625 L 48.347656 48.648438 Z M 48.347656 60.722656 L 52.992188 60.722656 L 52.992188 65.46875 L 48.347656 65.46875 Z M 65.824219 65.46875 L 61.183594 65.46875 L 61.183594 48.648438 L 65.824219 48.648438 Z M 20.757812 18.757812 C 20.757812 17.710938 20.324219 17.554688 19.078125 17.257812 C 17.886719 16.972656 16.085938 16.539062 16.085938 14.089844 C 16.085938 12.625 17.078125 11.390625 18.421875 11.015625 L 18.421875 10.363281 C 18.421875 9.890625 18.808594 9.507812 19.28125 9.507812 C 19.75 9.507812 20.136719 9.890625 20.136719 10.363281 L 20.136719 11.015625 C 21.480469 11.390625 22.472656 12.625 22.472656 14.089844 C 22.472656 14.5625 22.085938 14.945312 21.613281 14.945312 C 21.140625 14.945312 20.757812 14.5625 20.757812 14.089844 C 20.757812 13.273438 20.09375 12.609375 19.28125 12.609375 C 18.464844 12.609375 17.800781 13.273438 17.800781 14.089844 C 17.800781 15.136719 18.230469 15.292969 19.476562 15.589844 C 20.667969 15.878906 22.46875 16.308594 22.46875 18.757812 C 22.46875 20.21875 21.480469 21.457031 20.132812 21.832031 L 20.132812 22.484375 C 20.132812 22.957031 19.75 23.339844 19.277344 23.339844 C 18.804688 23.339844 18.421875 22.957031 18.421875 22.484375 L 18.421875 21.832031 C 17.078125 21.457031 16.085938 20.222656 16.085938 18.757812 C 16.085938 18.285156 16.46875 17.902344 16.941406 17.902344 C 17.414062 17.902344 17.800781 18.285156 17.800781 18.757812 C 17.800781 19.574219 18.464844 20.238281 19.277344 20.238281 C 20.09375 20.238281 20.757812 19.574219 20.757812 18.757812 Z M 26.265625 18.632812 C 26.265625 18.160156 26.648438 17.777344 27.121094 17.777344 L 36.054688 17.777344 C 36.527344 17.777344 36.910156 18.160156 36.910156 18.632812 C 36.910156 19.105469 36.527344 19.488281 36.054688 19.488281 L 27.121094 19.488281 C 26.648438 19.488281 26.265625 19.105469 26.265625 18.632812 Z M 26.265625 14.21875 C 26.265625 13.746094 26.648438 13.359375 27.121094 13.359375 L 36.054688 13.359375 C 36.527344 13.359375 36.910156 13.746094 36.910156 14.21875 C 36.910156 14.691406 36.527344 15.074219 36.054688 15.074219 L 27.121094 15.074219 C 26.648438 15.074219 26.265625 14.691406 26.265625 14.21875 Z M 26.265625 14.21875 " fill-opacity="1" fill-rule="nonzero"/></g></svg>