<svg xmlns="http://www.w3.org/2000/svg" xmlns:xlink="http://www.w3.org/1999/xlink" width="100" zoomAndPan="magnify" viewBox="0 0 75 74.999997" height="100" preserveAspectRatio="xMidYMid meet" version="1.0"><defs><clipPath id="206926df36"><path d="M 3.199219 3.917969 L 72.199219 3.917969 L 72.199219 73.667969 L 3.199219 73.667969 Z M 3.199219 3.917969 " clip-rule="nonzero"/></clipPath></defs><g clip-path="url(#206926df36)"><path fill="#28a745" d="M 55.738281 48.59375 C 51.089844 48.59375 47.304688 52.378906 47.304688 57.03125 C 47.304688 61.683594 51.089844 65.464844 55.738281 65.464844 C 60.390625 65.464844 64.175781 61.683594 64.175781 57.03125 C 64.175781 52.378906 60.390625 48.59375 55.738281 48.59375 Z M 55.738281 63.21875 C 52.328125 63.21875 49.554688 60.441406 49.554688 57.03125 C 49.554688 53.621094 52.328125 50.84375 55.738281 50.84375 C 59.152344 50.84375 61.925781 53.621094 61.925781 57.03125 C 61.925781 60.441406 59.152344 63.21875 55.738281 63.21875 Z M 71.632812 53.886719 L 69.605469 53.105469 C 69.300781 52.023438 68.867188 50.984375 68.320312 50.003906 L 69.203125 48.015625 C 69.390625 47.59375 69.296875 47.09375 68.96875 46.765625 L 66.003906 43.800781 C 65.675781 43.472656 65.179688 43.378906 64.753906 43.570312 L 62.765625 44.453125 C 61.785156 43.902344 60.746094 43.472656 59.664062 43.167969 L 58.886719 41.136719 C 58.71875 40.703125 58.300781 40.417969 57.835938 40.417969 L 53.644531 40.417969 C 53.179688 40.417969 52.761719 40.703125 52.59375 41.136719 L 51.8125 43.167969 C 50.761719 43.464844 49.75 43.878906 48.792969 44.40625 C 45.394531 41.40625 41.351562 39.320312 37.011719 38.285156 C 41.777344 35.921875 45.066406 31 45.066406 25.328125 C 45.066406 24.683594 45.019531 24.035156 44.933594 23.390625 C 45.09375 23.195312 45.1875 22.949219 45.1875 22.679688 L 45.1875 12.796875 L 47.96875 12.058594 L 47.96875 19.789062 L 46.273438 20.769531 C 45.921875 20.96875 45.710938 21.339844 45.710938 21.742188 L 45.710938 28.640625 C 45.710938 29.066406 45.949219 29.457031 46.332031 29.644531 C 46.710938 29.835938 47.167969 29.792969 47.507812 29.539062 L 49.09375 28.347656 L 50.679688 29.539062 C 50.878906 29.6875 51.117188 29.765625 51.355469 29.765625 C 51.527344 29.765625 51.699219 29.726562 51.859375 29.644531 C 52.238281 29.457031 52.480469 29.066406 52.480469 28.640625 L 52.480469 21.742188 C 52.480469 21.339844 52.265625 20.96875 51.917969 20.769531 L 50.21875 19.789062 L 50.21875 11.460938 L 50.574219 11.367188 C 51.066406 11.238281 51.410156 10.792969 51.410156 10.28125 C 51.410156 9.769531 51.066406 9.324219 50.574219 9.195312 L 30.902344 3.96875 C 30.710938 3.917969 30.515625 3.917969 30.324219 3.96875 L 10.652344 9.195312 C 10.160156 9.324219 9.816406 9.769531 9.816406 10.28125 C 9.816406 10.792969 10.160156 11.238281 10.652344 11.367188 L 16.039062 12.796875 L 16.039062 22.679688 C 16.039062 22.949219 16.132812 23.195312 16.292969 23.390625 C 16.207031 24.035156 16.160156 24.683594 16.160156 25.328125 C 16.160156 31 19.449219 35.921875 24.214844 38.285156 C 19.769531 39.347656 15.632812 41.507812 12.1875 44.625 C 7.164062 49.164062 4.003906 55.355469 3.289062 62.058594 C 3.253906 62.375 3.355469 62.691406 3.570312 62.929688 C 3.785156 63.167969 4.085938 63.300781 4.40625 63.300781 L 42.765625 63.300781 C 42.890625 63.558594 43.019531 63.808594 43.160156 64.058594 L 42.277344 66.042969 C 42.089844 66.46875 42.179688 66.96875 42.511719 67.296875 L 45.476562 70.261719 C 45.804688 70.589844 46.300781 70.679688 46.726562 70.492188 L 48.714844 69.609375 C 49.695312 70.160156 50.734375 70.589844 51.8125 70.894531 L 52.59375 72.921875 C 52.761719 73.359375 53.179688 73.644531 53.644531 73.644531 L 57.835938 73.644531 C 58.300781 73.644531 58.71875 73.355469 58.886719 72.921875 L 59.664062 70.894531 C 60.746094 70.589844 61.785156 70.160156 62.765625 69.609375 L 64.753906 70.492188 C 65.179688 70.679688 65.675781 70.589844 66.003906 70.261719 L 68.96875 67.296875 C 69.296875 66.96875 69.390625 66.46875 69.203125 66.042969 L 68.320312 64.058594 C 68.867188 63.074219 69.300781 62.035156 69.605469 60.957031 L 71.632812 60.175781 C 72.066406 60.007812 72.351562 59.59375 72.351562 59.125 L 72.351562 54.933594 C 72.351562 54.46875 72.066406 54.050781 71.632812 53.886719 Z M 50.230469 22.390625 L 50.230469 26.386719 L 49.769531 26.039062 C 49.570312 25.890625 49.332031 25.816406 49.09375 25.816406 C 48.855469 25.816406 48.621094 25.890625 48.417969 26.039062 L 47.957031 26.386719 L 47.957031 22.390625 L 49.09375 21.734375 Z M 37.195312 40.652344 C 37.925781 40.847656 38.648438 41.078125 39.359375 41.339844 L 35.445312 48.3125 L 32.226562 44.5 Z M 30.613281 42.90625 L 26.925781 40.046875 C 28.128906 39.871094 29.359375 39.78125 30.609375 39.78125 C 30.609375 39.78125 30.613281 39.78125 30.613281 39.78125 C 30.613281 39.78125 30.617188 39.78125 30.617188 39.78125 C 31.859375 39.78125 33.085938 39.871094 34.296875 40.050781 Z M 15.320312 10.28125 L 30.613281 6.21875 L 45.90625 10.28125 L 30.613281 14.34375 Z M 18.285156 13.394531 L 30.324219 16.59375 C 30.417969 16.617188 30.515625 16.632812 30.613281 16.632812 C 30.710938 16.632812 30.808594 16.617188 30.902344 16.59375 L 42.941406 13.394531 L 42.941406 21.742188 C 41.050781 22.09375 39.460938 22.402344 38.148438 22.65625 C 30.613281 24.109375 30.613281 24.109375 23.082031 22.65625 C 21.765625 22.402344 20.175781 22.09375 18.285156 21.742188 Z M 18.410156 25.328125 C 18.410156 24.90625 18.433594 24.484375 18.476562 24.066406 C 20.097656 24.367188 21.484375 24.636719 22.652344 24.863281 C 26.597656 25.625 28.605469 26.003906 30.613281 26.003906 C 32.621094 26.003906 34.628906 25.625 38.574219 24.863281 C 39.742188 24.636719 41.128906 24.367188 42.75 24.066406 C 42.792969 24.484375 42.816406 24.90625 42.816406 25.328125 C 42.816406 32.054688 37.34375 37.527344 30.617188 37.53125 C 30.617188 37.53125 30.613281 37.53125 30.613281 37.53125 C 30.609375 37.53125 30.609375 37.53125 30.605469 37.53125 C 23.882812 37.527344 18.410156 32.054688 18.410156 25.328125 Z M 24.023438 40.644531 L 28.996094 44.496094 L 25.78125 48.3125 L 21.863281 41.332031 C 22.570312 41.070312 23.289062 40.84375 24.023438 40.644531 Z M 5.6875 61.054688 C 7.011719 52.621094 12.429688 45.6875 19.773438 42.207031 L 24.613281 50.828125 C 24.792969 51.152344 25.121094 51.363281 25.488281 51.398438 C 25.523438 51.402344 25.558594 51.402344 25.59375 51.402344 C 25.921875 51.402344 26.238281 51.257812 26.453125 51.003906 L 30.613281 46.070312 L 34.773438 51.003906 C 34.988281 51.257812 35.304688 51.402344 35.632812 51.402344 C 35.667969 51.402344 35.703125 51.402344 35.738281 51.398438 C 36.105469 51.363281 36.433594 51.152344 36.613281 50.828125 L 41.445312 42.21875 C 42.679688 42.808594 43.867188 43.496094 44.996094 44.28125 L 42.511719 46.765625 C 42.179688 47.09375 42.089844 47.59375 42.277344 48.015625 L 43.160156 50.003906 C 42.609375 50.984375 42.179688 52.023438 41.875 53.105469 L 39.847656 53.886719 C 39.414062 54.050781 39.125 54.46875 39.125 54.933594 L 39.125 59.125 C 39.125 59.59375 39.414062 60.007812 39.847656 60.175781 L 41.875 60.957031 C 41.882812 60.988281 41.894531 61.019531 41.902344 61.054688 Z M 70.105469 58.355469 L 68.257812 59.066406 C 67.910156 59.199219 67.652344 59.492188 67.566406 59.855469 C 67.269531 61.105469 66.777344 62.296875 66.101562 63.394531 C 65.90625 63.710938 65.878906 64.101562 66.03125 64.441406 L 66.832031 66.25 L 64.960938 68.125 L 63.152344 67.320312 C 62.8125 67.171875 62.421875 67.195312 62.105469 67.390625 C 61.007812 68.066406 59.816406 68.5625 58.5625 68.859375 C 58.203125 68.945312 57.90625 69.203125 57.773438 69.550781 L 57.0625 71.394531 L 54.414062 71.394531 L 53.703125 69.550781 C 53.570312 69.203125 53.277344 68.945312 52.917969 68.859375 C 51.664062 68.5625 50.472656 68.066406 49.375 67.390625 C 49.058594 67.195312 48.667969 67.171875 48.328125 67.320312 L 46.519531 68.125 L 44.644531 66.25 L 45.449219 64.441406 C 45.601562 64.105469 45.574219 63.710938 45.378906 63.398438 C 44.703125 62.296875 44.210938 61.105469 43.910156 59.855469 C 43.824219 59.492188 43.566406 59.199219 43.222656 59.066406 L 41.375 58.355469 L 41.375 55.707031 L 43.222656 54.996094 C 43.566406 54.863281 43.824219 54.566406 43.910156 54.207031 C 44.210938 52.957031 44.703125 51.765625 45.378906 50.664062 C 45.574219 50.347656 45.601562 49.957031 45.449219 49.621094 L 44.644531 47.808594 L 46.519531 45.9375 L 48.328125 46.742188 C 48.667969 46.890625 49.058594 46.863281 49.375 46.671875 C 50.472656 45.992188 51.664062 45.5 52.914062 45.203125 C 53.277344 45.117188 53.570312 44.859375 53.703125 44.511719 L 54.414062 42.667969 L 57.0625 42.667969 L 57.773438 44.511719 C 57.90625 44.859375 58.203125 45.117188 58.5625 45.203125 C 59.816406 45.5 61.007812 45.992188 62.105469 46.671875 C 62.421875 46.863281 62.8125 46.890625 63.152344 46.742188 L 64.960938 45.9375 L 66.832031 47.808594 L 66.03125 49.617188 C 65.878906 49.957031 65.90625 50.347656 66.101562 50.664062 C 66.777344 51.761719 67.269531 52.957031 67.570312 54.207031 C 67.65625 54.566406 67.914062 54.863281 68.257812 54.996094 L 70.105469 55.707031 Z M 70.105469 58.355469 " fill-opacity="1" fill-rule="nonzero"/></g></svg>